<svg xmlns="http://www.w3.org/2000/svg" width="42.801" height="68.259" viewBox="0 0 42.801 68.259">
  <g id="Group_3797" data-name="Group 3797" transform="translate(-3.49 -280.585)">
    <path id="Path_29219" data-name="Path 29219" d="M5.175,4.279V18.155h9.854a4.29,4.29,0,0,1,4.3,4.3V38.19a4.29,4.29,0,0,1-4.3,4.3H5.175v7.426a6.435,6.435,0,0,0,6.448,6.45H27.034a6.435,6.435,0,0,0,6.448-6.45V4.279Z" transform="translate(5.561 292.478)" fill="#66f297"/>
    <path id="Path_29220" data-name="Path 29220" d="M10.736,301.583v40.81a6.435,6.435,0,0,0,6.448,6.45H32.6a6.435,6.435,0,0,0,6.448-6.45v-40.81m-31.255-21h34.2a4.29,4.29,0,0,1,4.3,4.3v7.572a4.29,4.29,0,0,1-4.3,4.3H7.789a4.29,4.29,0,0,1-4.3-4.3v-7.572A4.29,4.29,0,0,1,7.789,280.585Z" transform="translate(0 0)" fill="#b2f8cb"/>
    <path id="Path_29221" data-name="Path 29221" d="M5.175,311.908h9.854a4.29,4.29,0,0,0,4.3-4.3V291.872a4.29,4.29,0,0,0-4.3-4.3H5.175" transform="translate(5.561 23.059)" fill="#66f297"/>
  </g>
</svg>
