<svg xmlns="http://www.w3.org/2000/svg" width="43.9" height="64.3" viewBox="0 0 43.9 64.3">
  <path id="Path_29218" data-name="Path 29218" d="M71.9,46h0V45a9.522,9.522,0,0,0-3.4-7.2L65,35.2V32.8A3.958,3.958,0,0,0,68.3,29V21.8A3.8,3.8,0,0,0,64.5,18h-29a3.8,3.8,0,0,0-3.8,3.8V29A3.865,3.865,0,0,0,35,32.8v2.4L31.5,38a9.055,9.055,0,0,0-3.4,7.2V73.1a9.24,9.24,0,0,0,9.2,9.2H62.9A9.155,9.155,0,0,0,72,73.1V71.8h0V46ZM32.7,39.5l3.8-3a1.234,1.234,0,0,0,.4-.8V32.8H63v2.9a.909.909,0,0,0,.4.8l3.8,3A7.164,7.164,0,0,1,69.9,45H30.1A7.079,7.079,0,0,1,32.7,39.5ZM44.9,59.9a1.155,1.155,0,0,1-1-1.7L48.3,51a1.138,1.138,0,0,1,2.1.6v5.8H56a1.155,1.155,0,0,1,1,1.7l-4.4,7.2a1.138,1.138,0,0,1-2.1-.6V59.9H44.9ZM62.8,80.1H37.2A7.234,7.234,0,0,1,30,72.9v-.3H69.9v.3A7.149,7.149,0,0,1,62.8,80.1Z" transform="translate(-28.1 -18)" fill="#fd9691"/>
</svg>
