<svg xmlns="http://www.w3.org/2000/svg" width="54.012" height="53.924" viewBox="0 0 54.012 53.924">
  <path id="Path_29217" data-name="Path 29217" d="M39.006,20.679,26.553,8.226a13.2,13.2,0,0,0-18.327,0,13.2,13.2,0,0,0,0,18.327L20.679,39.006ZM16.449,18.094a2.332,2.332,0,1,1-3.054,3.524l-.235-.235a5.677,5.677,0,0,1,0-8.224h0a2.326,2.326,0,0,1,3.289,3.289h0c-.47.47-.47,1.41,0,1.645Zm38.3,18.327L42.3,23.968,23.968,42.3,36.421,54.748a13.2,13.2,0,0,0,18.327,0C59.917,49.814,59.682,41.59,54.748,36.421Z" transform="translate(-4.525 -4.525)" fill="#3f61ec"/>
</svg>
