<svg xmlns="http://www.w3.org/2000/svg" width="59.085" height="88.922" viewBox="0 0 59.085 88.922">
  <g id="Group_3795" data-name="Group 3795" transform="translate(-2.09 -0.75)">
    <rect id="Rectangle_2640" data-name="Rectangle 2640" width="25.836" height="9.735" transform="translate(18.712 10.803)" fill="#61ccfd"/>
    <path id="Path_29203" data-name="Path 29203" d="M34.2,13.819V6.311H15.6a4.949,4.949,0,0,0-4.949,4.949v2.56Z" transform="translate(10.346 6.72)" fill="#1fb7fd"/>
    <rect id="Rectangle_2641" data-name="Rectangle 2641" width="59.083" height="69.694" rx="4.076" transform="translate(2.09 19.978)" fill="#d2f1ff"/>
    <path id="Path_29204" data-name="Path 29204" d="M48.534,9.456H7.454a8.774,8.774,0,0,0-.972.1A8.924,8.924,0,0,0,5.1,14.317V66.006a9,9,0,0,0,9,9H55.177a8.831,8.831,0,0,0,.972-.1,8.928,8.928,0,0,0,1.389-4.761V18.46a9,9,0,0,0-9-9Z" transform="translate(3.637 10.52)" fill="#bbe9fe"/>
    <rect id="Rectangle_2642" data-name="Rectangle 2642" width="59.083" height="36.898" transform="translate(2.09 38.043)" fill="#61ccfd"/>
    <rect id="Rectangle_2643" data-name="Rectangle 2643" width="52.442" height="36.898" transform="translate(8.731 38.043)" fill="#1fb7fd"/>
    <rect id="Rectangle_2644" data-name="Rectangle 2644" width="37.688" height="10.616" transform="translate(12.787 0.75)" fill="#d2f1ff"/>
    <path id="Path_29205" data-name="Path 29205" d="M13.953,8.857H42.828V.75H8.419V3.323a5.534,5.534,0,0,0,5.534,5.534Z" transform="translate(7.648)" fill="#bbe9fe"/>
    <path id="Path_29215" data-name="Path 29215" d="M10.912,27.407H16.9V21.416h8.136v5.991H31.03v8.136H25.039v5.991H16.9V35.543H10.912Z" transform="translate(10.66 24.972)" fill="#c1eafe"/>
  </g>
</svg>
