<svg xmlns="http://www.w3.org/2000/svg" width="68.207" height="80.079" viewBox="0 0 68.207 80.079">
  <g id="Group_3794" data-name="Group 3794" transform="translate(-48.951 -22.66)">
    <rect id="Rectangle_2639" data-name="Rectangle 2639" width="30.228" height="4.405" transform="translate(60.146 36.684)" fill="#7deff1"/>
    <path id="Path_29195" data-name="Path 29195" d="M101.567,150.883a11.55,11.55,0,0,1-11.549,11.55H60.5a11.55,11.55,0,0,1-11.55-11.55V111.742a11.549,11.549,0,0,1,11.55-11.55H90.017a11.55,11.55,0,0,1,11.549,11.55v39.141Z" transform="translate(0 -60.027)" fill="#a8f4f6"/>
    <path id="Path_29196" data-name="Path 29196" d="M77.95,39.715V36.184H74.307v3.532a3.574,3.574,0,0,0,3.574,3.574h3.643A3.574,3.574,0,0,1,77.95,39.715Z" transform="translate(-19.631 -10.471)" fill="#2571a0"/>
    <path id="Path_29197" data-name="Path 29197" d="M237.553,322.158l-8.217.009a6.225,6.225,0,1,0,.013,12.45l8.217-.008Z" transform="translate(-134.843 -231.878)" fill="#d3fafb"/>
    <path id="Path_29198" data-name="Path 29198" d="M285.474,334.58l8.577-.009a6.225,6.225,0,0,0-.013-12.45l-8.577.009Z" transform="translate(-183.111 -231.848)" fill="#27e4e8"/>
    <path id="Path_29199" data-name="Path 29199" d="M120.949,192.959a3.8,3.8,0,0,1-3.8,3.8H88.095a3.8,3.8,0,0,1-3.8-3.8V166.6a3.8,3.8,0,0,1,3.8-3.805h29.049a3.8,3.8,0,0,1,3.8,3.805v26.364Z" transform="translate(-27.36 -108.492)" fill="#67ecef"/>
    <path id="Path_29200" data-name="Path 29200" d="M139.895,202.475H136v-3.891a2.547,2.547,0,0,0-2.547-2.547h-.99a2.547,2.547,0,0,0-2.547,2.547v3.891h-3.892a2.547,2.547,0,0,0-2.547,2.547v.99a2.547,2.547,0,0,0,2.547,2.547h3.892v3.892A2.547,2.547,0,0,0,132.466,215h.99A2.548,2.548,0,0,0,136,212.451V208.56h3.891a2.547,2.547,0,0,0,2.547-2.547v-.99A2.547,2.547,0,0,0,139.895,202.475Z" transform="translate(-57.702 -134.232)" fill="#f2f2f2"/>
    <path id="Path_29201" data-name="Path 29201" d="M109.244,26.594v7.061a3.572,3.572,0,0,1-3.575,3.572H66.522a3.572,3.572,0,0,1-3.575-3.572V26.594a3.575,3.575,0,0,1,3.575-3.575h1.892l.36-.36h34.639l.359.36h1.9A3.576,3.576,0,0,1,109.244,26.594Z" transform="translate(-10.836)" fill="#67ecef"/>
    <path id="Path_29202" data-name="Path 29202" d="M81.379,36.365a1.3,1.3,0,0,1-1.3,1.3h0a1.3,1.3,0,0,1-1.3-1.3V24.756a1.3,1.3,0,0,1,1.3-1.3h0a1.3,1.3,0,0,1,1.3,1.3Zm7.109,0a1.3,1.3,0,0,1-1.3,1.3h0a1.3,1.3,0,0,1-1.3-1.3V24.756a1.3,1.3,0,0,1,1.3-1.3h0a1.3,1.3,0,0,1,1.3,1.3Zm7.109,0a1.3,1.3,0,0,1-1.3,1.3h0a1.3,1.3,0,0,1-1.3-1.3V24.756a1.3,1.3,0,0,1,1.3-1.3h0a1.3,1.3,0,0,1,1.3,1.3Zm7.109,0a1.3,1.3,0,0,1-1.3,1.3h0a1.3,1.3,0,0,1-1.3-1.3V24.756a1.3,1.3,0,0,1,1.3-1.3h0a1.3,1.3,0,0,1,1.3,1.3Zm7.109,0a1.3,1.3,0,0,1-1.3,1.3h0a1.3,1.3,0,0,1-1.3-1.3V24.756a1.3,1.3,0,0,1,1.3-1.3h0a1.3,1.3,0,0,1,1.3,1.3Zm7.109,0a1.3,1.3,0,0,1-1.3,1.3h0a1.3,1.3,0,0,1-1.3-1.3V24.756a1.3,1.3,0,0,1,1.3-1.3h0a1.3,1.3,0,0,1,1.3,1.3Z" transform="translate(-23.095 -0.617)" fill="#d3fafb"/>
  </g>
</svg>
